<svg width="56" height="56" viewBox="0 0 56 56" fill="none" xmlns="http://www.w3.org/2000/svg">
<path d="M28 56C43.464 56 56 43.464 56 28C56 12.536 43.464 0 28 0C12.536 0 0 12.536 0 28C0 43.464 12.536 56 28 56Z" fill="#04BF33" fill-opacity="0.15"/>
<path d="M38.8108 14.9398C33.9195 22.6733 29.7907 30.681 27.4689 39.0769C27.2654 39.8131 26.5742 40.3628 25.7245 40.4719C24.7676 40.5949 23.8168 40.7546 22.8756 40.9505C21.9513 41.1429 20.9955 40.7622 20.5474 40.0234C18.5039 36.6549 16.06 33.4757 13.2628 30.5598C12.8339 30.1128 12.9428 29.4356 13.4957 29.1118C14.057 28.7829 14.6295 28.4691 15.2123 28.1708C17.158 27.1747 19.6535 27.7347 20.8389 29.4218C21.7751 30.7542 22.6632 32.113 23.5015 33.4954C26.3803 26.8081 30.1582 20.3719 34.7567 14.3258C35.3995 13.4801 36.4394 13.0202 37.5023 13.0003C38.6367 12.9791 39.364 14.0654 38.8108 14.9398Z" fill="#04BF33"/>
</svg>
