<svg width="56" height="56" viewBox="0 0 56 56" fill="none" xmlns="http://www.w3.org/2000/svg">
<path d="M28 56C43.464 56 56 43.464 56 28C56 12.536 43.464 0 28 0C12.536 0 0 12.536 0 28C0 43.464 12.536 56 28 56Z" fill="#F6BA41"/>
<path d="M39.8283 14.9529C34.886 23.8073 30.7141 32.9757 28.3681 42.5884C28.1625 43.4314 27.4641 44.0606 26.6055 44.1856C25.6386 44.3265 24.6779 44.5093 23.7269 44.7336C22.793 44.9538 21.8272 44.518 21.3744 43.6721C19.3096 39.8153 16.8402 36.1754 14.0138 32.8369C13.5805 32.3251 13.6905 31.5497 14.2492 31.1789C14.8164 30.8025 15.3948 30.4431 15.9837 30.1016C17.9496 28.9611 20.4712 29.6022 21.6689 31.5339C22.6149 33.0595 23.5123 34.6151 24.3594 36.1979C27.2681 28.5413 31.0854 21.1723 35.7319 14.2499C36.3814 13.2817 37.4322 12.755 38.5061 12.7323C39.6524 12.708 40.3873 13.9517 39.8283 14.9529Z" fill="white"/>
</svg>
