<svg width="80" height="80" viewBox="0 0 80 80" fill="none" xmlns="http://www.w3.org/2000/svg">
<path d="M40 80C62.0914 80 80 62.0914 80 40C80 17.9086 62.0914 0 40 0C17.9086 0 0 17.9086 0 40C0 62.0914 17.9086 80 40 80Z" fill="white" fill-opacity="0.5"/>
<path d="M57.7454 23.5633C51.1608 33.7826 45.6028 44.3642 42.4774 55.4587C42.2034 56.4316 41.273 57.1579 40.1292 57.3022C38.841 57.4648 37.561 57.6757 36.294 57.9346C35.0499 58.1888 33.7632 57.6857 33.16 56.7095C30.409 52.2582 27.1192 48.0572 23.3537 44.204C22.7765 43.6133 22.923 42.7185 23.6673 42.2906C24.4229 41.856 25.1935 41.4413 25.9781 41.0472C28.5973 39.7308 31.9566 40.4708 33.5524 42.7002C34.8127 44.4609 36.0081 46.2564 37.1367 48.0832C41.0119 39.2464 46.0975 30.7414 52.2878 22.7519C53.1532 21.6345 54.553 21.0266 55.9838 21.0004C57.5109 20.9724 58.49 22.4078 57.7454 23.5633Z" fill="#04BF33"/>
</svg>
