<svg xmlns="http://www.w3.org/2000/svg" width="142" height="42.15" viewBox="0 0 142 42.15">
    <defs>
        <style>
            .cls-1,.cls-2,.cls-3{fill:none}.cls-1{clip-rule:evenodd}.cls-3{fill-rule:evenodd}.cls-4{clip-path:url(#clip-path)}.cls-5{clip-path:url(#clip-path-2)}.cls-6{clip-path:url(#clip-path-3)}.cls-7{clip-path:url(#clip-path-5)}.cls-8{clip-path:url(#clip-path-6)}.cls-9{clip-path:url(#clip-path-7)}.cls-10{fill:#fffeff}.cls-11{clip-path:url(#clip-path-9)}.cls-12{clip-path:url(#clip-path-11)}.cls-13{fill:#fff}.cls-14{clip-path:url(#clip-path-13)}
        </style>
        <clipPath id="clip-path">
            <path id="Path_1178" d="M0-427.089A3.911 3.911 0 0 1 3.911-431h134.178a3.911 3.911 0 0 1 3.911 3.911v34.328a3.911 3.911 0 0 1-3.911 3.911H3.911A3.911 3.911 0 0 1 0-392.761z" class="cls-1" data-name="Path 1178" transform="translate(0 431)"/>
        </clipPath>
        <clipPath id="clip-path-2">
            <path id="Path_1177" d="M-474-1248.967h234.711V-1425H-474z" class="cls-2" data-name="Path 1177" transform="translate(474 1425)"/>
        </clipPath>
        <clipPath id="clip-path-3">
            <path id="Rectangle_4" d="M0 0h161.559v61.709H0z" class="cls-2" data-name="Rectangle 4"/>
        </clipPath>
        <clipPath id="clip-path-5"/>
        <clipPath id="clip-path-6">
            <path id="Path_1176" d="M0-388.85h142V-431H0z" class="cls-2" data-name="Path 1176" transform="translate(0 431)"/>
        </clipPath>
        <clipPath id="clip-path-7">
            <path id="Path_1181" d="M460.657-236.731h2.387l-5.225-14.47H455.4l-5.225 14.47h2.306l1.334-3.841h5.515zm-4.157-11.843h.17l2.1 6.117h-4.372zm12.876.742a3.8 3.8 0 0 0-3.43 1.986h-.16v-1.805h-2.076v14.46h2.156v-5.194h.17a3.561 3.561 0 0 0 3.359 1.835c2.758 0 4.513-2.176 4.513-5.646s-1.755-5.636-4.533-5.636zm-.612 9.346c-1.805 0-2.938-1.424-2.938-3.7s1.133-3.71 2.948-3.71 2.918 1.394 2.918 3.7-1.093 3.71-2.928 3.71zm11.793-9.346a3.8 3.8 0 0 0-3.43 1.986h-.16v-1.805h-2.076v14.46h2.156v-5.194h.171a3.561 3.561 0 0 0 3.359 1.835c2.758 0 4.513-2.176 4.513-5.646s-1.755-5.636-4.533-5.636zm-.612 9.346c-1.805 0-2.938-1.424-2.938-3.7s1.133-3.71 2.948-3.71 2.918 1.394 2.918 3.7-1.093 3.71-2.928 3.71zm9.708-2.136c.16 2.587 2.316 4.242 5.525 4.242 3.43 0 5.576-1.735 5.576-4.5 0-2.176-1.223-3.379-4.192-4.071l-1.594-.391c-1.885-.441-2.647-1.033-2.647-2.066 0-1.3 1.183-2.156 2.958-2.156 1.685 0 2.848.832 3.059 2.166h2.186c-.13-2.437-2.276-4.152-5.215-4.152-3.159 0-5.265 1.715-5.265 4.292 0 2.126 1.193 3.389 3.811 4l1.865.451c1.915.451 2.758 1.113 2.758 2.216 0 1.284-1.324 2.216-3.129 2.216-1.935 0-3.279-.872-3.47-2.246zm12.957-9.677v2.7h-1.795v1.815h1.795v6.167c0 2.106.953 2.948 3.349 2.948a6.62 6.62 0 0 0 1.153-.11v-1.795a6.752 6.752 0 0 1-.8.05c-1.073 0-1.544-.5-1.544-1.645v-5.616h2.447v-1.815h-2.447v-2.7zm9.948 11.863c-1.875 0-2.928-1.374-2.928-3.76 0-2.367 1.053-3.75 2.928-3.75s2.928 1.384 2.928 3.75-1.063 3.76-2.928 3.76zm0 1.915c3.189 0 5.144-2.136 5.144-5.676 0-3.52-1.966-5.666-5.144-5.666s-5.154 2.146-5.154 5.666c0 3.54 1.956 5.676 5.154 5.676zm6.128-.211h2.156v-6.448a2.556 2.556 0 0 1 2.778-2.567 5.9 5.9 0 0 1 1.193.13v-2.126a4.52 4.52 0 0 0-.953-.09 2.948 2.948 0 0 0-2.938 1.855h-.16v-1.675h-2.076zm10.981-9.3a2.635 2.635 0 0 1 2.688 2.828h-5.515a2.792 2.792 0 0 1 2.828-2.828zm2.677 6.348a2.618 2.618 0 0 1-2.6 1.324c-1.725 0-2.838-1.213-2.908-3.129v-.12h7.711v-.752c0-3.43-1.835-5.505-4.873-5.505-3.079 0-5.034 2.216-5.034 5.706s1.915 5.636 5.044 5.636c2.5 0 4.242-1.2 4.733-3.159z" class="cls-1" data-name="Path 1181" transform="translate(-450.178 251.553)"/>
        </clipPath>
        <clipPath id="clip-path-9">
            <path id="Path_1184" d="M470.838-366.587v6.891h2.488c2.053 0 3.242-1.265 3.242-3.467 0-2.168-1.2-3.424-3.242-3.424zm1.07.974h1.3a2.172 2.172 0 0 1 2.273 2.464 2.166 2.166 0 0 1-2.273 2.478h-1.3zm8.424 5.1c-.893 0-1.394-.654-1.394-1.791s.5-1.786 1.394-1.786 1.394.659 1.394 1.786-.506 1.791-1.394 1.791zm0 .912a2.385 2.385 0 0 0 2.45-2.7 2.388 2.388 0 0 0-2.45-2.7 2.389 2.389 0 0 0-2.454 2.7 2.386 2.386 0 0 0 2.454 2.7zm10.5-5.3H489.8l-.926 3.968h-.081l-1.07-3.968h-.984l-1.07 3.968h-.069l-.931-3.968h-1.041l1.433 5.2h1.055l1.07-3.83h.081l1.074 3.83h1.059zm1.3 5.2h1.027v-3.042a1.228 1.228 0 0 1 1.332-1.318c.764 0 1.136.415 1.136 1.251v3.109h1.027v-3.366a1.7 1.7 0 0 0-1.813-1.933 1.689 1.689 0 0 0-1.643.926h-.076v-.826h-.988zm6.257 0h1.027v-7.23h-1.026zm5.005-.812c-.893 0-1.394-.654-1.394-1.791s.5-1.786 1.394-1.786 1.394.659 1.394 1.786-.506 1.791-1.394 1.791zm0 .912a2.385 2.385 0 0 0 2.45-2.7 2.388 2.388 0 0 0-2.45-2.7 2.389 2.389 0 0 0-2.454 2.7 2.386 2.386 0 0 0 2.454 2.7zm5.626-.879c-.559 0-.965-.272-.965-.74s.325-.7 1.041-.75l1.27-.081v.435a1.226 1.226 0 0 1-1.347 1.137zm-.263.864a1.75 1.75 0 0 0 1.562-.817h.081v.731h.988v-3.553c0-1.1-.735-1.748-2.039-1.748-1.179 0-2.02.573-2.125 1.466h.993c.115-.368.511-.578 1.084-.578.7 0 1.065.31 1.065.86v.449l-1.409.081c-1.237.076-1.934.616-1.934 1.552a1.571 1.571 0 0 0 1.733 1.557zm6.237 0a1.805 1.805 0 0 0 1.633-.907h.081v.821h.984v-7.23h-1.027v2.856h-.076a1.715 1.715 0 0 0-1.595-.912c-1.313 0-2.158 1.041-2.158 2.684s.836 2.688 2.158 2.688zm.291-4.45c.859 0 1.4.683 1.4 1.767s-.535 1.762-1.4 1.762-1.39-.664-1.39-1.767.525-1.762 1.39-1.762zm9.3 3.553c-.893 0-1.394-.654-1.394-1.791s.5-1.786 1.394-1.786 1.394.659 1.394 1.786-.506 1.791-1.394 1.791zm0 .912a2.385 2.385 0 0 0 2.45-2.7 2.388 2.388 0 0 0-2.45-2.7 2.389 2.389 0 0 0-2.454 2.7 2.386 2.386 0 0 0 2.454 2.7zm3.926-.1h1.027v-3.042a1.228 1.228 0 0 1 1.332-1.318c.764 0 1.136.415 1.136 1.251v3.109h1.027v-3.366a1.7 1.7 0 0 0-1.808-1.933 1.689 1.689 0 0 0-1.643.926h-.076v-.826h-.988zm9.49-6.461v1.285h-.855v.864h.855v2.937c0 1 .453 1.4 1.595 1.4a3.16 3.16 0 0 0 .549-.053v-.855a3.219 3.219 0 0 1-.382.024c-.511 0-.735-.239-.735-.783v-2.674h1.172v-.864h-1.165v-1.285zm3.654 6.461h1.027v-3.037a1.255 1.255 0 0 1 1.361-1.318c.773 0 1.16.42 1.16 1.251v3.1h1.027v-3.357a1.718 1.718 0 0 0-1.838-1.939 1.678 1.678 0 0 0-1.638.931h-.081v-2.865h-1.017zm8.4-4.427a1.255 1.255 0 0 1 1.28 1.347h-2.626a1.329 1.329 0 0 1 1.347-1.347zm1.275 3.023a1.247 1.247 0 0 1-1.237.63 1.374 1.374 0 0 1-1.385-1.49v-.057h3.672v-.358c0-1.633-.874-2.622-2.321-2.622-1.466 0-2.4 1.055-2.4 2.717s.912 2.684 2.4 2.684a2.112 2.112 0 0 0 2.254-1.5z" class="cls-1" data-name="Path 1184" transform="translate(-470.838 366.926)"/>
        </clipPath>
        <clipPath id="clip-path-11">
            <path id="Path_1187" d="M149.777-287.663a6.291 6.291 0 0 1 3-5.279 6.443 6.443 0 0 0-5.075-2.743c-2.135-.225-4.205 1.277-5.293 1.277-1.109 0-2.784-1.256-4.588-1.219a6.756 6.756 0 0 0-5.687 3.468c-2.459 4.257-.625 10.514 1.731 13.955 1.179 1.686 2.556 3.567 4.358 3.5 1.764-.072 2.422-1.124 4.55-1.124 2.109 0 2.727 1.124 4.566 1.081 1.893-.028 3.084-1.692 4.222-3.394a13.9 13.9 0 0 0 1.931-3.932 6.081 6.081 0 0 1-3.712-5.592" class="cls-1" data-name="Path 1187" transform="translate(-130.963 295.708)"/>
        </clipPath>
        <clipPath id="clip-path-13">
            <path id="Path_1190" d="M249.57-359.56a6.192 6.192 0 0 0 1.417-4.44 6.308 6.308 0 0 0-4.078 2.11 5.893 5.893 0 0 0-1.454 4.274 5.21 5.21 0 0 0 4.115-1.946" class="cls-1" data-name="Path 1190" transform="translate(-245.423 363.998)"/>
        </clipPath>
    </defs>
    <g id="ios" transform="translate(0 431)">
        <path id="Path_1243" d="M0-427.089A3.911 3.911 0 0 1 3.911-431h134.178a3.911 3.911 0 0 1 3.911 3.911v34.328a3.911 3.911 0 0 1-3.911 3.911H3.911A3.911 3.911 0 0 1 0-392.761z" data-name="Path 1243"/>
        <g id="Group_122" class="cls-4" data-name="Group 122" transform="translate(0 -431)">
            <g id="Group_121" class="cls-5" data-name="Group 121" transform="translate(-46.355 -97.209)">
                <g id="Group_120" class="cls-6" data-name="Group 120" transform="translate(36.576 87.43)">
                    <g id="Group_119" class="cls-8" data-name="Group 119" transform="translate(9.78 9.78)">
                        <g id="Group_117" data-name="Group 117">
                            <path id="Path_1174" d="M0 3.911A3.911 3.911 0 0 1 3.911 0h134.178A3.911 3.911 0 0 1 142 3.911v34.328a3.911 3.911 0 0 1-3.911 3.911H3.911A3.911 3.911 0 0 1 0 38.239z" class="cls-2" data-name="Path 1174"/>
                        </g>
                        <g id="Group_118" data-name="Group 118">
                            <path id="Path_1175" d="M0 3.911A3.911 3.911 0 0 1 3.911 0h134.178A3.911 3.911 0 0 1 142 3.911v34.328a3.911 3.911 0 0 1-3.911 3.911H3.911A3.911 3.911 0 0 1 0 38.239z" class="cls-2" data-name="Path 1175"/>
                        </g>
                    </g>
                </g>
            </g>
        </g>
        <g id="Group_124" class="cls-9" data-name="Group 124" transform="translate(44.026 -413.451)">
            <g id="Group_123" class="cls-5" data-name="Group 123" transform="translate(-90.381 -114.759)">
                <path id="Path_1179" d="M445.178-237.214h85.348v-19.339h-85.348z" class="cls-10" data-name="Path 1179" transform="translate(-355.286 370.822)"/>
            </g>
        </g>
        <g id="Group_126" class="cls-11" data-name="Group 126" transform="translate(46.046 -424.734)">
            <g id="Group_125" class="cls-5" data-name="Group 125" transform="translate(-92.401 -103.476)">
                <path id="Path_1182" d="M465.838-363.618h82.528v-8.308h-82.528z" class="cls-10" data-name="Path 1182" transform="translate(-373.925 474.912)"/>
            </g>
        </g>
        <g id="Group_128" class="cls-12" data-name="Group 128" transform="translate(12.808 -417.769)">
            <g id="Group_127" class="cls-5" data-name="Group 127" transform="translate(-59.163 -110.44)">
                <path id="Path_1185" d="M125.964-278.723h23.5v-21.986h-23.5z" class="cls-13" data-name="Path 1185" transform="translate(-67.289 410.66)"/>
            </g>
        </g>
        <g id="Group_130" class="cls-14" data-name="Group 130" transform="translate(24.001 -424.447)">
            <g id="Group_129" class="cls-5" data-name="Group 129" transform="translate(-70.357 -103.762)">
                <path id="Path_1188" d="M240.423-361.626H247V-369h-6.573z" class="cls-13" data-name="Path 1188" transform="translate(-170.555 472.271)"/>
            </g>
        </g>
    </g>
</svg>
